<?xml version="1.0" standalone="no"?>
<!DOCTYPE svg PUBLIC "-//W3C//DTD SVG 20010904//EN"
  "http://www.w3.org/TR/2001/REC-SVG-20010904/DTD/svg10.dtd">
<svg preserveAspectRatio="xMidYMid meet" version="1.0"
     viewBox="-90 180 775 470"
     xmlns="http://www.w3.org/2000/svg">
  <g fill="#000"
     stroke="none" transform="translate(-105,150) rotate(90) scale(0.1,-0.1)">
    <path d="M4593 7846 c-12 -18 -73 -69 -135 -113 -198 -140 -263 -233 -263
-373 1 -84 20 -133 74 -184 17 -17 31 -28 31 -25 0 2 -7 26 -15 53 -21 70 -18
92 4 28 10 -29 22 -57 27 -62 5 -5 9 39 9 103 0 101 3 118 27 170 31 66 46 77
20 15 -32 -80 -16 -328 21 -315 5 1 19 19 29 38 l20 34 -4 -42 c-2 -24 -1 -43
3 -43 4 0 31 26 61 59 63 68 97 133 105 203 3 27 10 45 14 41 13 -13 -7 -118
-34 -177 -13 -28 -39 -69 -57 -89 -18 -21 -30 -40 -28 -43 3 -3 27 11 54 31
l49 36 -48 -46 c-44 -40 -46 -45 -25 -45 33 1 108 36 141 68 48 45 70 99 75
183 6 95 -7 151 -64 298 -27 67 -48 140 -51 174 -3 31 -9 57 -12 57 -3 0 -16
-15 -28 -34z"/>
    <path d="M3244 7271 c-20 -12 -43 -42 -60 -78 -27 -54 -29 -66 -29 -173 0 -66
8 -161 19 -223 21 -124 18 -251 -8 -307 -9 -19 -13 -26 -10 -15 16 50 16 231
0 295 -41 162 -135 284 -274 353 -84 41 -87 42 -191 42 -100 0 -110 -2 -173
-33 -72 -35 -152 -113 -183 -179 -85 -177 60 -389 240 -351 90 19 156 117 140
207 -31 171 -263 207 -345 53 -17 -34 -19 -35 -19 -12 -1 72 90 187 183 231
261 124 560 -89 583 -415 15 -211 -120 -432 -342 -561 -37 -21 -17 -4 65 55
247 178 325 513 161 692 -42 45 -52 51 -96 55 -41 4 -54 1 -72 -16 -33 -31
-38 -65 -16 -103 24 -42 65 -56 99 -33 32 21 39 41 28 73 -12 33 -45 45 -73
26 -27 -19 -27 -50 0 -65 17 -9 25 -8 37 4 20 21 8 51 -18 44 -11 -3 -18 -1
-14 4 10 16 43 9 54 -12 16 -28 -11 -69 -45 -69 -61 0 -87 81 -39 119 31 25
55 26 93 7 79 -41 131 -150 131 -275 0 -163 -71 -302 -218 -424 -55 -45 -57
-46 -62 -25 -7 28 -50 39 -50 13 0 -12 6 -15 20 -10 28 9 26 -16 -2 -42 -13
-11 -54 -37 -93 -58 -316 -172 -545 -440 -649 -756 -52 -159 -70 -293 -63
-479 9 -234 52 -394 173 -635 130 -260 298 -470 684 -848 223 -219 237 -235
115 -127 -427 377 -727 740 -935 1130 -129 242 -188 330 -276 415 -159 154
-364 149 -364 -8 0 -58 68 -100 100 -62 17 20 8 50 -15 50 -14 0 -20 -6 -19
-23 1 -30 -27 -25 -43 8 -16 34 -6 74 25 106 24 23 33 26 87 22 163 -10 289
-142 480 -497 42 -80 88 -162 101 -183 29 -46 30 -48 1 -48 -28 0 -47 -17 -47
-42 0 -23 27 -35 42 -20 8 8 7 13 -5 18 -27 10 -20 24 13 24 32 0 23 10 176
-195 184 -247 349 -423 666 -706 219 -196 568 -519 568 -526 0 -2 -28 16 -62
41 -519 378 -1087 658 -1595 785 -67 17 -131 31 -141 31 -11 0 -49 9 -85 20
-109 34 -156 97 -124 165 18 39 47 51 78 34 20 -10 20 -12 6 -21 -23 -12 -21
-28 3 -28 30 0 27 47 -4 61 -54 25 -106 -20 -106 -91 0 -57 41 -98 129 -129
l46 -16 -145 0 c-129 -1 -159 -4 -273 -33 -176 -44 -213 -66 -183 -108 15 -19
25 -16 137 50 64 36 177 56 322 56 279 0 545 -78 990 -288 64 -30 116 -57 114
-59 -2 -2 -46 17 -98 41 -133 62 -352 142 -456 167 -100 25 -245 30 -310 11
-51 -15 -130 -68 -157 -105 -31 -42 -29 -127 3 -161 13 -14 33 -28 43 -32 27
-8 76 14 84 38 7 25 -18 53 -40 45 -22 -9 -20 -28 4 -34 28 -7 7 -33 -27 -33
-40 0 -73 42 -73 92 0 65 35 109 117 150 64 31 73 33 173 32 123 0 223 -23
405 -91 159 -60 157 -59 143 -82 -6 -10 -8 -26 -5 -35 8 -20 37 -21 37 -1 0 8
-4 15 -10 15 -5 0 -10 5 -10 10 0 25 66 4 214 -69 153 -76 378 -204 496 -284
64 -43 63 -44 -16 -16 -144 50 -255 70 -415 76 -181 7 -305 -10 -447 -58 -48
-17 -101 -35 -118 -41 -38 -13 -84 -3 -84 17 0 8 5 14 12 12 6 -1 14 6 16 16
4 20 -18 23 -36 5 -19 -19 -14 -45 10 -62 25 -18 26 -17 -29 -45 -23 -11 -104
-57 -179 -102 -276 -162 -382 -203 -524 -203 -111 0 -173 25 -196 80 -26 63 3
124 59 124 28 0 29 -1 13 -13 -19 -14 -13 -47 9 -47 42 0 41 66 -1 76 -61 15
-107 -26 -107 -96 0 -76 53 -121 165 -141 131 -24 272 21 525 168 317 184 441
239 628 279 109 23 340 23 460 0 93 -17 290 -74 283 -81 -2 -2 -26 3 -53 11
-166 50 -225 58 -435 58 -184 1 -214 -1 -290 -22 -250 -68 -442 -203 -613
-427 -70 -93 -125 -204 -162 -330 -69 -230 -30 -578 86 -771 108 -179 305
-311 534 -359 97 -21 251 -22 403 -5 184 21 282 4 357 -62 57 -50 72 -97 47
-147 -21 -43 -41 -56 -74 -48 -29 8 -46 35 -21 33 22 -2 28 23 7 31 -24 9 -47
-23 -33 -49 27 -50 106 -43 134 13 39 74 -2 167 -94 213 -86 44 -159 50 -356
31 -144 -14 -190 -15 -271 -6 -54 6 -100 13 -102 16 -2 2 37 1 86 -2 413 -27
723 259 698 642 -6 87 -27 190 -42 204 -4 3 -4 -3 0 -14 15 -38 19 -238 7
-298 -53 -253 -292 -421 -576 -404 -118 8 -190 27 -304 83 -169 83 -281 222
-333 411 -30 110 -29 305 1 417 45 168 153 343 290 467 261 238 625 292 1039
154 297 -99 528 -241 703 -430 85 -93 87 -103 4 -19 -179 181 -380 302 -609
368 -121 36 -193 46 -319 46 -145 0 -231 -20 -309 -73 -78 -53 -103 -98 -103
-183 0 -51 4 -66 27 -96 53 -69 152 -85 223 -36 109 74 68 238 -60 238 -69 0
-117 -79 -85 -139 15 -28 61 -44 93 -32 64 25 50 115 -16 109 -27 -3 -33 -8
-35 -32 -3 -28 13 -50 30 -40 13 8 9 44 -4 44 -8 0 -9 3 -2 10 15 15 42 2 50
-22 7 -23 -20 -58 -45 -58 -33 0 -61 30 -61 66 0 74 92 105 149 49 55 -54 30
-160 -46 -192 -102 -42 -203 24 -203 132 0 128 108 210 309 236 227 29 532
-57 774 -217 180 -120 330 -281 417 -449 22 -44 33 -69 23 -55 -86 116 -167
192 -267 250 -115 65 -244 89 -294 54 -51 -36 -69 -127 -32 -164 22 -22 69
-27 88 -8 17 17 15 45 -3 52 -19 7 -33 -23 -16 -34 9 -5 8 -9 -5 -14 -9 -3
-27 1 -40 9 -35 23 -34 92 1 128 49 49 127 41 265 -26 69 -33 102 -58 176
-132 170 -168 242 -349 251 -630 4 -126 2 -150 -20 -236 -52 -201 -139 -356
-289 -515 -145 -153 -303 -266 -538 -386 -126 -64 -117 -66 35 -6 226 89 433
208 592 341 244 206 421 502 462 777 7 44 11 177 10 320 -3 276 8 346 64 454
48 91 122 122 181 75 29 -23 33 -46 11 -75 -13 -18 -14 -18 -15 -1 0 12 -6 17
-17 15 -28 -5 -21 -33 9 -36 19 -2 31 3 43 21 22 34 10 74 -29 98 -90 55 -185
-17 -238 -181 -16 -50 -22 -104 -28 -235 -3 -93 -7 -156 -8 -139 -11 194 -139
526 -279 722 -134 187 -334 400 -598 637 -216 194 -566 549 -643 654 -84 113
-114 180 -120 268 -4 63 -1 79 22 126 31 64 58 82 124 78 35 -2 75 -46 66 -74
-9 -32 -13 -33 -28 -11 -11 15 -17 16 -27 7 -17 -17 -3 -43 24 -43 31 0 47 18
47 51 0 41 -9 58 -41 74 -41 22 -101 19 -133 -6 -49 -38 -71 -95 -71 -184 0
-70 4 -89 33 -149 49 -104 112 -185 266 -345 105 -109 122 -129 67 -81 -188
165 -284 283 -391 483 -93 174 -146 365 -157 561 -5 96 -4 113 11 125 10 9 16
10 16 2 0 -6 5 -11 10 -11 6 0 10 7 10 15 0 8 -9 15 -20 15 -16 0 -20 7 -20
33 0 45 27 224 41 272 42 147 166 256 260 229 42 -12 74 -54 65 -87 -6 -27
-44 -45 -42 -19 0 8 -5 17 -12 20 -10 3 -13 -3 -10 -19 4 -29 39 -37 62 -14
26 26 20 73 -13 106 -73 72 -223 7 -290 -127 -31 -63 -59 -175 -73 -290 -6
-57 -13 -102 -16 -100 -10 11 20 252 43 341 35 138 75 220 136 276 35 33 48
51 43 63 -4 10 -15 16 -28 14 -39 -6 -162 -237 -181 -340 -7 -38 -25 -43 -25
-7 0 35 -29 78 -58 86 -56 15 -92 -3 -92 -47 0 -27 22 -46 41 -34 17 10 9 26
-11 21 -14 -4 -20 0 -20 12 0 26 21 41 55 41 64 0 86 -66 72 -210 -14 -141 -2
-439 22 -564 26 -129 69 -262 120 -368 44 -93 28 -82 -71 49 -208 278 -340
557 -388 822 -16 91 -14 266 5 347 115 503 443 844 878 914 97 16 310 8 392
-15 241 -67 385 -231 317 -365 -52 -105 -208 -107 -257 -4 -24 51 -14 101 26
138 27 24 38 27 73 23 25 -4 48 -14 58 -27 50 -61 -15 -151 -76 -107 -24 17
-18 70 8 75 28 6 45 -17 23 -29 -14 -9 -16 -14 -6 -25 9 -11 15 -12 25 -3 23
19 17 58 -11 71 -34 15 -75 -12 -75 -51 0 -63 83 -87 127 -37 30 35 29 77 -3
115 -54 64 -150 45 -186 -37 -24 -54 -18 -98 19 -143 101 -120 288 -47 287
111 -1 229 -379 391 -755 325 -385 -67 -682 -336 -834 -755 -108 -300 -82
-583 86 -940 32 -69 52 -116 43 -105 -24 31 -119 232 -144 305 -61 180 -86
425 -60 599 41 284 188 545 408 721 257 207 592 290 900 225 393 -82 689 -358
789 -732 34 -129 39 -346 9 -463 -57 -225 -188 -392 -391 -493 -108 -54 -182
-71 -315 -71 -99 0 -126 4 -189 27 -131 46 -232 132 -292 247 -15 30 -28 48
-29 39 0 -9 14 -44 31 -78 115 -231 408 -355 697 -295 263 54 480 233 576 475
76 192 86 450 25 672 -62 222 -227 459 -413 592 -37 26 -66 49 -66 51 0 17
163 -113 232 -184 112 -118 171 -206 297 -451 59 -114 126 -234 148 -266 95
-139 185 -213 295 -242 58 -14 66 -15 100 0 97 41 103 187 8 187 -32 0 -60
-34 -42 -52 18 -18 47 -4 44 21 -2 22 -1 23 20 9 45 -30 31 -110 -24 -142 -63
-38 -188 7 -283 102 -78 78 -134 165 -260 412 -109 211 -110 215 -86 220 13 3
28 12 34 21 13 20 2 49 -18 49 -18 0 -20 -26 -2 -33 22 -8 -9 -30 -32 -22 -11
3 -54 48 -95 98 -41 51 -92 108 -113 128 -178 169 -441 293 -668 313 -38 4
-92 9 -119 13 l-48 5 138 52 c260 99 475 205 670 331 106 70 179 94 226 76 67
-26 81 -141 17 -141 -12 0 -16 6 -12 20 4 14 0 20 -11 20 -22 0 -21 -37 2 -48
23 -13 58 2 72 29 19 34 -3 95 -43 120 -40 25 -106 21 -167 -9 -39 -19 -37
-15 34 50 90 82 141 148 220 278 60 99 72 130 62 155 -6 18 -42 20 -52 3 -4
-6 -17 -46 -29 -88 -28 -98 -77 -172 -190 -285 -178 -178 -386 -296 -790 -446
-71 -27 -134 -49 -140 -49 -5 0 67 33 162 74 311 133 445 230 509 370 47 102
30 204 -39 246 -67 41 -142 12 -135 -52 4 -36 31 -59 49 -41 6 6 9 19 5 28 -5
14 -9 15 -20 6 -22 -19 -30 6 -12 34 36 55 133 15 157 -65 21 -69 -18 -175
-93 -257 -46 -49 -170 -134 -264 -181 -68 -34 -252 -112 -264 -112 -5 0 -10
10 -12 23 -4 27 -48 38 -48 12 0 -11 5 -15 15 -12 8 4 17 2 19 -2 12 -18 -24
-42 -119 -80 -55 -21 -118 -47 -139 -56 l-39 -17 64 70 c104 113 160 226 186
376 4 27 14 51 21 54 7 2 11 -2 10 -8 -2 -7 3 -15 10 -17 7 -3 12 4 12 16 0
16 -6 21 -25 21 -27 0 -23 -10 -50 160 -20 127 -19 273 1 333 21 63 63 107
101 107 36 0 68 -32 59 -57 -6 -15 -8 -15 -16 -3 -7 12 -12 12 -22 2 -9 -9 -9
-15 0 -24 17 -17 46 2 50 34 6 50 -63 81 -114 49z"/>
    <path d="M3996 6362 c-34 -24 -46 -26 -115 -22 -173 9 -203 5 -268 -29 -34
-18 -73 -46 -88 -61 l-28 -29 24 -5 c13 -3 38 -7 54 -9 18 -3 8 -5 -25 -7 -30
-1 -47 -4 -38 -7 9 -2 15 -10 12 -17 -9 -24 65 -50 154 -54 73 -4 89 -1 136
22 29 15 76 48 103 75 46 46 129 159 121 165 -1 2 -20 -8 -42 -22z"/>
    <path d="M1969 5892 c-113 -119 -161 -207 -166 -307 l-4 -70 47 -50 c45 -48
47 -49 40 -20 -5 21 4 12 30 -32 41 -69 62 -84 38 -28 -20 49 -17 57 7 13 11
-21 23 -38 28 -38 16 0 36 95 35 170 0 49 -8 99 -22 144 -25 78 -28 153 -7
211 8 21 13 40 11 42 -1 1 -18 -14 -37 -35z"/>
    <path d="M1451 5611 c62 -39 83 -77 118 -213 35 -137 48 -165 109 -230 47 -50
177 -136 189 -124 3 3 -5 40 -18 81 -14 41 -23 75 -21 75 2 0 19 -33 38 -72
l35 -73 -4 60 -5 60 11 -47 c6 -27 14 -48 18 -48 14 0 21 110 10 171 -32 184
-151 296 -385 363 -48 14 -100 26 -114 26 -23 0 -21 -3 19 -29z"/>
    <path d="M3053 5615 c-23 -7 -83 -18 -133 -24 -200 -25 -300 -99 -300 -223 0
-24 3 -54 7 -68 6 -23 7 -22 19 15 11 34 12 35 8 8 -3 -18 -3 -33 0 -33 2 0
19 27 37 61 31 57 105 129 133 129 6 0 -5 -11 -25 -24 -50 -34 -91 -99 -109
-173 -9 -38 -8 -39 28 -16 27 17 27 17 10 -3 -10 -11 -18 -28 -18 -36 0 -34
126 14 197 75 l38 32 -33 -42 c-22 -28 -56 -54 -104 -78 -68 -33 -69 -35 -37
-36 30 -2 31 -2 7 -6 -37 -6 -35 -19 3 -27 55 -11 84 -7 136 19 92 46 133 124
153 290 7 55 19 115 26 134 20 48 23 47 -43 26z"/>
    <path d="M1563 5295 c-4 -11 -8 -72 -8 -135 1 -145 21 -203 102 -290 53 -57
154 -120 194 -120 50 0 52 12 7 58 l-43 46 44 -37 c25 -20 48 -37 53 -37 24 0
-5 146 -41 204 -12 18 -52 54 -89 79 -89 61 -135 109 -176 187 -30 55 -36 62
-43 45z"/>
    <path d="M4123 3663 c-176 -174 -269 -317 -314 -480 -18 -65 -21 -95 -16 -193
5 -122 25 -197 81 -309 26 -51 114 -156 123 -147 3 2 -7 42 -22 88 -28 89 -56
208 -54 236 0 9 7 -10 15 -43 27 -113 107 -326 118 -314 2 2 -2 33 -10 69 -7
36 -13 112 -13 170 l2 105 13 -95 c8 -52 23 -126 35 -165 l21 -70 25 30 c36
45 120 221 137 291 20 78 20 220 0 304 -8 36 -33 121 -55 190 -33 102 -41 139
-41 203 0 72 3 86 40 160 22 45 39 83 37 85 -2 2 -57 -50 -122 -115z"/>
    <path d="M3155 3644 c139 -118 178 -182 224 -359 44 -169 78 -232 183 -337 47
-49 92 -88 99 -88 9 0 10 20 6 78 -3 42 -8 86 -12 97 -6 18 -5 18 5 2 6 -9 19
-54 29 -100 l18 -82 8 59 c8 58 1 197 -12 246 -3 14 -3 22 1 19 3 -3 14 -39
25 -80 l18 -74 7 40 c4 22 15 72 23 112 16 71 16 72 -8 119 -35 69 -142 174
-223 219 -64 36 -239 102 -366 139 l-55 16 30 -26z"/>
    <path d="M683 3525 c-57 -29 -128 -101 -166 -169 -13 -24 -42 -86 -63 -137
-39 -97 -73 -159 -105 -194 -18 -21 -18 -21 51 -17 40 3 108 -3 162 -13 185
-34 309 -19 408 50 69 48 116 146 108 226 l-3 34 -27 -52 c-35 -67 -56 -80
-23 -15 31 62 35 102 5 57 -55 -83 -162 -162 -245 -181 -19 -4 -7 5 32 25 36
19 82 54 110 85 53 57 102 141 90 152 -4 4 -31 -2 -60 -14 l-52 -21 35 29 c19
17 38 30 42 30 4 0 8 5 8 11 0 8 -26 10 -89 7 -106 -6 -176 -34 -247 -100 -35
-32 -43 -36 -30 -16 42 65 178 146 251 149 17 0 41 4 55 8 21 7 18 9 -25 15
-81 12 -84 15 -12 13 37 -1 67 1 67 4 0 3 -21 16 -47 29 -73 37 -163 39 -230
5z"/>
    <path d="M4297 3133 c4 -16 7 -80 7 -143 0 -139 -14 -197 -85 -352 -46 -100
-53 -122 -57 -195 -3 -65 0 -96 18 -154 20 -68 75 -189 85 -189 9 0 47 99 65
170 10 41 19 70 19 63 2 -29 -22 -168 -35 -205 -8 -23 -12 -43 -10 -45 7 -7
84 137 102 190 9 27 18 46 20 44 6 -6 -37 -120 -66 -176 -12 -24 -19 -45 -16
-48 3 -3 30 20 61 51 100 100 165 271 165 436 0 179 -62 329 -213 518 -55 68
-71 77 -60 35z"/>
    <path d="M1512 2358 c-68 -10 -137 -46 -184 -95 -40 -41 -91 -137 -103 -192
l-7 -35 38 31 c59 46 98 63 182 78 42 7 88 18 102 23 36 14 120 109 120 136 0
5 -17 6 -37 3 -26 -5 -33 -3 -23 3 8 5 23 10 33 10 20 0 22 13 5 27 -21 16
-69 20 -126 11z"/>
    <path d="M1411 2129 c-80 -16 -128 -47 -217 -144 -86 -94 -132 -124 -192 -126
-45 -2 51 -28 138 -38 151 -17 262 19 342 109 51 56 82 123 74 156 l-7 25 -42
-34 c-66 -53 -76 -55 -24 -6 26 25 47 51 47 57 0 14 -53 14 -119 1z"/>
    <path d="M1465 1863 c-16 -8 -39 -23 -50 -32 -19 -15 -19 -15 -5 3 13 17 13
19 0 13 -8 -3 -32 -11 -53 -18 -77 -25 -103 -135 -68 -282 25 -107 40 -138 41
-87 1 49 30 108 84 168 56 64 82 112 94 180 10 57 3 64 -32 35 -15 -13 -14
-10 3 10 28 31 27 32 -14 10z"/>
    <path d="M3120 1867 c0 -3 26 -17 57 -33 120 -58 174 -142 233 -359 64 -236
136 -347 297 -462 57 -41 212 -117 221 -109 16 17 -63 210 -120 294 -46 66
-26 49 35 -30 51 -66 114 -182 131 -240 4 -13 10 -18 12 -11 9 20 -47 245 -81
331 -19 45 -30 80 -25 77 13 -8 86 -201 106 -280 10 -38 21 -74 25 -78 4 -5
12 24 19 64 32 187 -63 452 -207 579 -118 103 -282 179 -483 223 -122 27 -220
42 -220 34z"/>
  </g>
</svg>
