<?xml version="1.0" standalone="no"?>
<!DOCTYPE svg PUBLIC "-//W3C//DTD SVG 20010904//EN"
  "http://www.w3.org/TR/2001/REC-SVG-20010904/DTD/svg10.dtd">
<svg height="125.000000pt" preserveAspectRatio="xMidYMid meet"
     version="1.0" viewBox="0 0 158.000000 125.000000" width="158.000000pt"
     xmlns="http://www.w3.org/2000/svg">
  <metadata>
    Created by potrace 1.10, written by Peter Selinger 2001-2011
  </metadata>
  <g fill="#ffffff"
     stroke="none" transform="translate(0.000000,125.000000) scale(0.100000,-0.100000)">
    <path d="M968 1120 c-27 -16 -105 -150 -122 -209 -20 -68 -20 -131 -1 -157 14
-18 14 -18 15 6 1 72 33 168 85 260 65 116 68 125 23 100z"/>
    <path d="M195 1042 c36 -85 47 -129 56 -221 33 -341 51 -394 171 -514 65 -65
91 -82 208 -140 74 -36 148 -69 163 -73 l29 -7 -7 79 c-10 111 -39 215 -85
312 -55 116 -103 184 -194 280 -43 45 -75 82 -71 82 17 0 119 -96 171 -161
138 -170 190 -294 229 -544 6 -35 8 -37 18 -20 19 31 13 189 -12 312 -24 124
-60 200 -134 280 -49 53 -228 186 -327 243 -41 24 -82 50 -91 57 -8 7 -41 22
-73 33 -53 18 -57 18 -51 2z"/>
    <path d="M1218 940 c-131 -79 -230 -168 -259 -235 -21 -47 -38 -156 -39 -242
0 -92 11 -92 42 2 32 100 94 219 132 254 15 14 26 23 26 20 0 -2 -20 -50 -45
-107 -40 -92 -72 -208 -61 -220 8 -8 124 55 175 95 27 21 63 59 81 84 33 49
35 58 59 289 5 52 13 103 16 113 4 9 3 17 -1 17 -5 0 -61 -32 -126 -70z"/>
    <path d="M1287 506 c-146 -83 -317 -280 -317 -363 0 -25 16 -10 79 74 70 93
189 207 273 261 97 63 67 87 -35 28z"/>
    <path d="M211 328 c72 -87 133 -141 214 -190 57 -34 171 -75 181 -65 3 2 -32
26 -78 53 -92 53 -185 123 -238 179 -43 46 -108 95 -127 95 -7 0 14 -33 48
-72z"/>
  </g>
</svg>
